<svg width="1323" height="900" viewBox="0 0 1323 900" fill="none" xmlns="http://www.w3.org/2000/svg">
<path fill-rule="evenodd" clip-rule="evenodd" d="M1694.66 536.328C1728.8 608.531 1779.34 706.241 1732.42 770.874C1677.16 846.994 1554.26 823.45 1464.9 852.821C1411.53 870.362 1343.94 867.167 1308.02 910.363C1245.83 985.166 1289.57 1152.43 1195.42 1176.92C1109.15 1199.35 1079.07 1043.58 1009.35 988.038C966.7 954.068 918.163 926.55 865.145 913.835C782.258 893.956 93.3017 992.333 20.5 948C-44.9425 908.148 58.119 668.04 208.5 633C311.5 609 540.385 546.484 557.889 471.833C574.298 401.847 547.942 308.482 603.57 262.954C668.809 209.558 780.959 275.856 852.274 230.894C912.417 192.975 898.744 92.0647 951.032 43.8878C1005.06 -5.89084 1077.81 -37.5026 1150.96 -44.3033C1225.23 -51.2085 1306.89 -38.6438 1367.24 5.19237C1428.35 49.5774 1450.88 129.281 1483.64 197.335C1510.76 253.696 1511.31 320.095 1544.37 373.196C1583.78 436.504 1662.78 468.913 1694.66 536.328Z" fill="#F6B7AA"/>
</svg>
